<svg xmlns="http://www.w3.org/2000/svg" viewBox="0 0 656.85 208.46"><g id="Capa_2" data-name="Capa 2"><g id="Capa_1-2" data-name="Capa 1"><path d="M12.94,137H39.61v9.89H0V72.17H12.94Z"/><path d="M63.34,82.11V104H90.58v10H63.34v22.89H94v10H50.4V72.12H94v10Z"/><path d="M656.77,101.1a15.4,15.4,0,0,1-.2-2.11,89.86,89.86,0,0,0-25.66-54.94c-1.63-1.59-2.16-2-3.16-2.33A7.41,7.41,0,0,0,619,45.23a4.39,4.39,0,0,0-.69,3.06,4.26,4.26,0,0,0,.58,2.84,18.77,18.77,0,0,0,2.22,2.71A78,78,0,0,1,637.7,79.7a82,82,0,0,1,3,9.62,62,62,0,0,1,1.91,17.42c0,6,0,7-.46,9.87a74.36,74.36,0,0,1-3.89,15.58,77.66,77.66,0,0,1-16.94,27.27c-2.54,2.65-3.06,3.63-3.08,5.82a4.67,4.67,0,0,0,.67,2.85,8,8,0,0,0,3.4,3.36,6.81,6.81,0,0,0,3.08.37c2.9,0,3.2-.13,5.6-2.48A89.56,89.56,0,0,0,656.65,114C656.83,111.81,656.93,101.28,656.77,101.1Z"/><path d="M630.85,101.61a66.15,66.15,0,0,0-19-40.69c-2.18-2.14-2.93-2.47-5.5-2.47-1.8,0-2.12,0-3,.52a9.07,9.07,0,0,0-3.47,3.31,5.66,5.66,0,0,0-.62,2.55c-.12,2.35.32,3.27,2.7,5.75a62.62,62.62,0,0,1,6.62,8.29,54.75,54.75,0,0,1,6.55,14.7c.22.91.5,2,.6,2.33s.39,1.93.65,3.48a56.9,56.9,0,0,1,0,14.75,52.86,52.86,0,0,1-14.14,28.51c-2.42,2.53-2.92,3.52-2.92,5.71a4.67,4.67,0,0,0,.56,2.73,9.35,9.35,0,0,0,3.51,3.44,7.63,7.63,0,0,0,6.34-.12c1.85-1,6.81-6.56,9.91-11.14a65.73,65.73,0,0,0,11-29.46A95.14,95.14,0,0,0,630.85,101.61Z"/><path d="M605,102.28a53,53,0,0,0-2-8.49A40.84,40.84,0,0,0,593,77.94c-2.33-2.29-3.1-2.66-5.46-2.64a6.05,6.05,0,0,0-2.82.51,7.55,7.55,0,0,0-4.43,5.28,4.11,4.11,0,0,0,.1,2.4A8.32,8.32,0,0,0,583,87.57a26.92,26.92,0,0,1,8,19.15c0,7.49-2.74,14-8.3,19.68-1.87,1.93-2.28,2.82-2.28,5.11a5.46,5.46,0,0,0,2.08,4.62,6.54,6.54,0,0,0,5.07,2.06c2.38,0,3.45-.53,5.7-2.81a41.53,41.53,0,0,0,11.63-23.81A79.9,79.9,0,0,0,605,102.28Z"/><polygon points="230.07 78.36 216.78 113.03 203.99 78.36 185.17 78.36 207.2 133.37 195.17 162.15 213.1 162.15 248.07 78.36 230.07 78.36"/><path d="M289.28,79.36h0a30.08,30.08,0,0,0-14.82-3.65,30.77,30.77,0,0,0-15.25,3.75,26.29,26.29,0,0,0-10.5,10.76A33,33,0,0,0,245,106a32.4,32.4,0,0,0,3.78,15.81,27.29,27.29,0,0,0,10.56,10.77,30.09,30.09,0,0,0,15.08,3.81c6.85,0,12.7-1.77,17.4-5.25a27,27,0,0,0,9.77-13.44h0l-17.44-2.31h0c-1.88,3.83-5.07,5.68-9.73,5.68a11.76,11.76,0,0,1-8.3-3,10.73,10.73,0,0,1-3.1-4.85h39.33l.41-2.57a37.43,37.43,0,0,0,.42-5.86,30.77,30.77,0,0,0-3.64-15A26.16,26.16,0,0,0,289.28,79.36ZM274,91a12.39,12.39,0,0,1,8.46,2.9,8.93,8.93,0,0,1,2.82,4.33H263.34a10.89,10.89,0,0,1,3-4.41A11,11,0,0,1,274,91Z"/><path d="M350.16,79.51h0a26.84,26.84,0,0,0-12.59-2.94,25,25,0,0,0-10.09,2.08A24.2,24.2,0,0,0,324.89,80V77.44h-17v58.95h17v-32.6c0-3.9.93-6.85,2.76-8.78s4.27-2.84,7.52-2.84,5.68.93,7.46,2.83,2.72,4.89,2.72,8.79v32.6H362.3V102.16a28.32,28.32,0,0,0-3.16-13.74A21.48,21.48,0,0,0,350.16,79.51Z"/><path d="M410.78,80.23a28.84,28.84,0,0,0-15.17-4.52A27.19,27.19,0,0,0,371.2,90.26a32.41,32.41,0,0,0-3.68,15.55,33.22,33.22,0,0,0,3.66,15.66,27.94,27.94,0,0,0,10.12,11,26.79,26.79,0,0,0,14.21,3.95,26.2,26.2,0,0,0,12.31-2.85,28,28,0,0,0,3-1.79v4.64h17.13V58.45H410.78Zm-13,40.56a12.12,12.12,0,0,1-6.27-1.74,12.75,12.75,0,0,1-4.81-5.12,16.71,16.71,0,0,1-1.88-8.12,15.83,15.83,0,0,1,1.86-7.94A12.28,12.28,0,0,1,391.45,93a12.62,12.62,0,0,1,6.36-1.67,12.38,12.38,0,0,1,6.34,1.7,12.74,12.74,0,0,1,4.76,5,16.18,16.18,0,0,1,1.87,8,16.56,16.56,0,0,1-1.87,8.07,12.77,12.77,0,0,1-4.76,5A12.38,12.38,0,0,1,397.81,120.79Z"/><path d="M491.16,90.2h0a27.72,27.72,0,0,0-10.88-10.76,32.75,32.75,0,0,0-30.36,0A27.76,27.76,0,0,0,439.05,90.2,31.51,31.51,0,0,0,435.1,106a32.07,32.07,0,0,0,3.84,15.83,27.64,27.64,0,0,0,10.66,10.76,30.21,30.21,0,0,0,15,3.8,31.7,31.7,0,0,0,15.32-3.78A28.26,28.26,0,0,0,491,121.83,30.88,30.88,0,0,0,495.11,106,31.54,31.54,0,0,0,491.16,90.2Zm-20.09,29a13.16,13.16,0,0,1-6.45,1.64,11.4,11.4,0,0,1-8.75-3.69c-2.35-2.5-3.54-6.24-3.54-11.1a17.59,17.59,0,0,1,1.76-8.3,11.19,11.19,0,0,1,4.5-4.77,12.63,12.63,0,0,1,6.32-1.62,12.88,12.88,0,0,1,6.39,1.63A11.82,11.82,0,0,1,476,97.75a16.93,16.93,0,0,1,1.82,8.25,16.56,16.56,0,0,1-1.9,8.27A12.28,12.28,0,0,1,471.07,119.15Z"/><path d="M572.56,170.07V38.39C572.56,17.22,552.09,0,526.92,0H161.38c-25.17,0-45.64,17.22-45.64,38.39V170.07c0,21.17,20.47,38.39,45.64,38.39H526.92C552.09,208.46,572.56,191.24,572.56,170.07Zm-411.18,27c-17.7,0-32.1-12.11-32.1-27V38.39c0-14.89,14.4-27,32.1-27H526.92c17.7,0,32.1,12.11,32.1,27V64.64h-3.39c-6.35,0-11.5,4.33-11.5,9.67V133c0,5.34,5.15,9.67,11.5,9.67H559v27.44c0,14.89-14.4,27-32.1,27Z"/></g></g></svg>